<mxfile host="app.diagrams.net" agent="Mozilla/5.0 (X11; Linux x86_64) AppleWebKit/537.36 (KHTML, like Gecko) Chrome/136.0.0.0 Safari/537.36" version="26.1.2">
  <diagram name="Page-1" id="4KoAmVDkefFNXdqAuzSo">
    <mxGraphModel dx="1050" dy="572" grid="1" gridSize="10" guides="1" tooltips="1" connect="1" arrows="1" fold="1" page="1" pageScale="1" pageWidth="850" pageHeight="1100" math="0" shadow="0">
      <root>
        <mxCell id="0" />
        <mxCell id="1" parent="0" />
        <mxCell id="ha6ITQb57JJ6qsP4La8v-1" value="&lt;b&gt;&lt;u&gt;Exchanges&lt;/u&gt;&lt;/b&gt;" style="rounded=1;whiteSpace=wrap;html=1;fillColor=none;gradientColor=default;labelPosition=center;verticalLabelPosition=top;align=center;verticalAlign=bottom;" parent="1" vertex="1">
          <mxGeometry x="40" y="40" width="80" height="800" as="geometry" />
        </mxCell>
        <mxCell id="ha6ITQb57JJ6qsP4La8v-3" value="&lt;b&gt;Limited Order Book&lt;/b&gt;" style="rounded=1;whiteSpace=wrap;html=1;fillColor=none;gradientColor=default;labelPosition=center;verticalLabelPosition=top;align=center;verticalAlign=bottom;" parent="1" vertex="1">
          <mxGeometry x="320" y="58" width="130" height="150" as="geometry" />
        </mxCell>
        <mxCell id="ha6ITQb57JJ6qsP4La8v-5" value="&lt;font style=&quot;font-size: 15px;&quot;&gt;Historical Database&lt;/font&gt;&lt;div&gt;&lt;br&gt;&lt;/div&gt;" style="shape=cylinder3;whiteSpace=wrap;html=1;boundedLbl=1;backgroundOutline=1;size=15;fillColor=none;" parent="1" vertex="1">
          <mxGeometry x="250" y="340" width="120" height="150" as="geometry" />
        </mxCell>
        <mxCell id="ha6ITQb57JJ6qsP4La8v-8" value="Grafana" style="rounded=1;whiteSpace=wrap;html=1;fillColor=none;" parent="1" vertex="1">
          <mxGeometry x="452" y="400" width="160" height="40" as="geometry" />
        </mxCell>
        <mxCell id="ha6ITQb57JJ6qsP4La8v-11" value="&lt;b&gt;Engine&lt;/b&gt;" style="rounded=1;whiteSpace=wrap;html=1;fillColor=none;labelPosition=center;verticalLabelPosition=top;align=center;verticalAlign=bottom;" parent="1" vertex="1">
          <mxGeometry x="290" y="25" width="430" height="205" as="geometry" />
        </mxCell>
        <mxCell id="ha6ITQb57JJ6qsP4La8v-12" value="&lt;div&gt;Orders and Positions Database&lt;/div&gt;" style="shape=cylinder3;whiteSpace=wrap;html=1;boundedLbl=1;backgroundOutline=1;size=15;fillColor=none;fontSize=15;" parent="1" vertex="1">
          <mxGeometry x="830" y="679" width="120" height="150" as="geometry" />
        </mxCell>
        <mxCell id="ha6ITQb57JJ6qsP4La8v-13" value="Monitoring System" style="rounded=1;whiteSpace=wrap;html=1;fillColor=none;" parent="1" vertex="1">
          <mxGeometry x="453" y="340" width="160" height="40" as="geometry" />
        </mxCell>
        <mxCell id="ha6ITQb57JJ6qsP4La8v-15" value="&lt;b&gt;Order Managenment System&lt;/b&gt;" style="rounded=1;whiteSpace=wrap;html=1;fillColor=none;gradientColor=default;labelPosition=center;verticalLabelPosition=middle;align=center;verticalAlign=middle;" parent="1" vertex="1">
          <mxGeometry x="280" y="640" width="320" height="80" as="geometry" />
        </mxCell>
        <mxCell id="7EvWN0Yc6MDMydtPuUWC-9" style="edgeStyle=orthogonalEdgeStyle;rounded=0;orthogonalLoop=1;jettySize=auto;html=1;entryX=0;entryY=0.473;entryDx=0;entryDy=0;entryPerimeter=0;" parent="1" edge="1">
          <mxGeometry relative="1" as="geometry">
            <mxPoint x="830" y="748.9499999999999" as="targetPoint" />
            <mxPoint x="615" y="690" as="sourcePoint" />
            <Array as="points">
              <mxPoint x="615" y="691" />
              <mxPoint x="750" y="691" />
              <mxPoint x="750" y="749" />
            </Array>
          </mxGeometry>
        </mxCell>
        <mxCell id="ha6ITQb57JJ6qsP4La8v-16" value="&lt;b&gt;Orders Managenment and Execution subsystem&lt;/b&gt;" style="rounded=1;whiteSpace=wrap;html=1;fillColor=none;labelPosition=center;verticalLabelPosition=bottom;align=center;verticalAlign=top;" parent="1" vertex="1">
          <mxGeometry x="255" y="630" width="370" height="210" as="geometry" />
        </mxCell>
        <mxCell id="ha6ITQb57JJ6qsP4La8v-17" value="&lt;b&gt;Order Execution System/Gateway&lt;/b&gt;" style="rounded=1;whiteSpace=wrap;html=1;fillColor=none;gradientColor=default;labelPosition=center;verticalLabelPosition=middle;align=center;verticalAlign=middle;" parent="1" vertex="1">
          <mxGeometry x="280" y="749" width="320" height="80" as="geometry" />
        </mxCell>
        <mxCell id="ha6ITQb57JJ6qsP4La8v-23" value="" style="shape=singleArrow;direction=south;whiteSpace=wrap;html=1;" parent="1" vertex="1">
          <mxGeometry x="435" y="722" width="10" height="20" as="geometry" />
        </mxCell>
        <mxCell id="ha6ITQb57JJ6qsP4La8v-25" value="" style="shape=singleArrow;whiteSpace=wrap;html=1;fillColor=none;arrowWidth=0.3864583333333485;arrowSize=0.10769230769230748;" parent="1" vertex="1">
          <mxGeometry x="122" y="675" width="154" height="10" as="geometry" />
        </mxCell>
        <mxCell id="ha6ITQb57JJ6qsP4La8v-26" value="" style="shape=singleArrow;whiteSpace=wrap;html=1;fillColor=none;arrowWidth=0.3864583333333485;arrowSize=0.10769230769230748;direction=west;" parent="1" vertex="1">
          <mxGeometry x="124" y="782" width="154" height="10" as="geometry" />
        </mxCell>
        <mxCell id="ha6ITQb57JJ6qsP4La8v-29" value="" style="shape=singleArrow;whiteSpace=wrap;html=1;fillColor=none;arrowWidth=0.280495689655163;arrowSize=0.09239992072928997;" parent="1" vertex="1">
          <mxGeometry x="130" y="80" width="184" height="10" as="geometry" />
        </mxCell>
        <mxCell id="7EvWN0Yc6MDMydtPuUWC-5" style="edgeStyle=orthogonalEdgeStyle;rounded=0;orthogonalLoop=1;jettySize=auto;html=1;" parent="1" edge="1">
          <mxGeometry relative="1" as="geometry">
            <mxPoint x="613" y="680" as="targetPoint" />
            <mxPoint x="683" y="133" as="sourcePoint" />
            <Array as="points">
              <mxPoint x="763" y="133" />
              <mxPoint x="763" y="680" />
            </Array>
          </mxGeometry>
        </mxCell>
        <mxCell id="ha6ITQb57JJ6qsP4La8v-32" value="&lt;b&gt;Real Time (Low-Latency)&lt;/b&gt;&lt;div&gt;&lt;b&gt;Strategies&lt;/b&gt;&lt;/div&gt;" style="verticalLabelPosition=middle;verticalAlign=middle;html=1;shape=mxgraph.basic.layered_rect;dx=10;outlineConnect=0;whiteSpace=wrap;fillColor=none;strokeColor=default;strokeWidth=2;dashed=1;labelPosition=center;align=center;" parent="1" vertex="1">
          <mxGeometry x="490" y="67" width="190" height="132" as="geometry" />
        </mxCell>
        <mxCell id="ha6ITQb57JJ6qsP4La8v-34" value="Connectors&lt;br&gt;&lt;b&gt;?????&lt;/b&gt;" style="rounded=1;whiteSpace=wrap;html=1;fillColor=none;" parent="1" vertex="1">
          <mxGeometry x="160" y="90" width="71" height="152.5" as="geometry" />
        </mxCell>
        <mxCell id="ha6ITQb57JJ6qsP4La8v-35" value="Connectors&lt;br&gt;&lt;b&gt;?????&lt;/b&gt;" style="rounded=1;whiteSpace=wrap;html=1;fillColor=none;" parent="1" vertex="1">
          <mxGeometry x="160" y="589.5" width="71" height="152.5" as="geometry" />
        </mxCell>
        <mxCell id="7EvWN0Yc6MDMydtPuUWC-6" style="edgeStyle=orthogonalEdgeStyle;rounded=0;orthogonalLoop=1;jettySize=auto;html=1;" parent="1" edge="1">
          <mxGeometry relative="1" as="geometry">
            <mxPoint x="613" y="669.94" as="targetPoint" />
            <mxPoint x="833" y="132.9744827586207" as="sourcePoint" />
            <Array as="points">
              <mxPoint x="769" y="132.94" />
              <mxPoint x="769" y="669.94" />
            </Array>
          </mxGeometry>
        </mxCell>
        <mxCell id="ha6ITQb57JJ6qsP4La8v-36" value="&lt;b&gt;Slow Stragegies&lt;/b&gt;" style="verticalLabelPosition=middle;verticalAlign=middle;html=1;shape=mxgraph.basic.layered_rect;dx=10;outlineConnect=0;whiteSpace=wrap;fillColor=none;strokeColor=default;strokeWidth=2;dashed=1;labelPosition=center;align=center;" parent="1" vertex="1">
          <mxGeometry x="834" y="73" width="160" height="120" as="geometry" />
        </mxCell>
        <mxCell id="7EvWN0Yc6MDMydtPuUWC-1" value="Web User Interface" style="rounded=1;whiteSpace=wrap;html=1;fillColor=none;" parent="1" vertex="1">
          <mxGeometry x="450" y="465" width="160" height="40" as="geometry" />
        </mxCell>
        <mxCell id="7EvWN0Yc6MDMydtPuUWC-8" value="" style="shape=flexArrow;endArrow=classic;startArrow=classic;html=1;rounded=0;width=3.125;endSize=2.8749999999999996;endWidth=10.01953125;startWidth=10.01953125;startSize=2.8749999999999996;" parent="1" edge="1">
          <mxGeometry width="100" height="100" relative="1" as="geometry">
            <mxPoint x="531.5500000000001" y="635" as="sourcePoint" />
            <mxPoint x="531.5500000000001" y="510" as="targetPoint" />
          </mxGeometry>
        </mxCell>
        <mxCell id="7EvWN0Yc6MDMydtPuUWC-11" value="&lt;u&gt;&lt;i&gt;Questions&lt;/i&gt;&lt;/u&gt;:&amp;nbsp; &amp;nbsp; &amp;nbsp; &amp;nbsp; &amp;nbsp; &amp;nbsp; &amp;nbsp; &amp;nbsp; &amp;nbsp; &amp;nbsp; &amp;nbsp; &amp;nbsp; &amp;nbsp; &amp;nbsp; &amp;nbsp; &amp;nbsp; &amp;nbsp; &amp;nbsp; &amp;nbsp; &amp;nbsp; &amp;nbsp; &amp;nbsp; &amp;nbsp; &amp;nbsp; &amp;nbsp; &amp;nbsp; &amp;nbsp; &amp;nbsp; &amp;nbsp; &amp;nbsp; &amp;nbsp; &amp;nbsp; &amp;nbsp; &amp;nbsp; &amp;nbsp; &amp;nbsp; &amp;nbsp; &amp;nbsp; &amp;nbsp; &amp;nbsp; &amp;nbsp; &amp;nbsp; &amp;nbsp; &amp;nbsp; &amp;nbsp; &amp;nbsp; &amp;nbsp; &amp;nbsp; &amp;nbsp; &amp;nbsp; &amp;nbsp; &amp;nbsp; &amp;nbsp;&amp;nbsp;&lt;div&gt;-&amp;nbsp; Rust for Connectors ??&amp;nbsp; &amp;nbsp; &amp;nbsp; &amp;nbsp; &amp;nbsp; &amp;nbsp; &amp;nbsp; &amp;nbsp; &amp;nbsp; &amp;nbsp; &amp;nbsp; &amp;nbsp; &amp;nbsp; &amp;nbsp; &amp;nbsp; &amp;nbsp; &amp;nbsp; &amp;nbsp; &amp;nbsp; &amp;nbsp; &amp;nbsp; &amp;nbsp; &amp;nbsp; &amp;nbsp; &amp;nbsp; &amp;nbsp; &amp;nbsp; &amp;nbsp; &amp;nbsp; &amp;nbsp; &amp;nbsp; &amp;nbsp; &amp;nbsp; &amp;nbsp; &amp;nbsp; &amp;nbsp; &amp;nbsp; &amp;nbsp; &amp;nbsp; &amp;nbsp; &amp;nbsp; &amp;nbsp; &amp;nbsp;&lt;/div&gt;&lt;div&gt;- Historical database: ClickHouse ? ScyllaDB ??&amp;nbsp; &amp;nbsp; &amp;nbsp; &amp;nbsp; &amp;nbsp; &amp;nbsp; &amp;nbsp; &amp;nbsp; &amp;nbsp; &amp;nbsp; &amp;nbsp; &amp;nbsp; &amp;nbsp; &amp;nbsp; &amp;nbsp; &amp;nbsp; &amp;nbsp; &amp;nbsp; &amp;nbsp; &amp;nbsp; &amp;nbsp; &amp;nbsp; &amp;nbsp; &amp;nbsp;&amp;nbsp;&lt;/div&gt;&lt;div&gt;&amp;nbsp;- Order DB:&amp;nbsp; MySQL ? PostresSQL&amp;nbsp; &amp;nbsp; &amp;nbsp; &amp;nbsp; &amp;nbsp; &amp;nbsp; &amp;nbsp; &amp;nbsp; &amp;nbsp; &amp;nbsp; &amp;nbsp; &amp;nbsp; &amp;nbsp; &amp;nbsp; &amp;nbsp; &amp;nbsp; &amp;nbsp; &amp;nbsp; &amp;nbsp; &amp;nbsp; &amp;nbsp; &amp;nbsp; &amp;nbsp; &amp;nbsp; &amp;nbsp; &amp;nbsp; &amp;nbsp; &amp;nbsp; &amp;nbsp; &amp;nbsp; &amp;nbsp; &amp;nbsp; &amp;nbsp; &amp;nbsp; &amp;nbsp;&amp;nbsp;&lt;/div&gt;&lt;div&gt;- OMS: is&amp;nbsp;&lt;span style=&quot;background-color: initial;&quot;&gt;Risk Managenment part of OMS&lt;/span&gt;&lt;span style=&quot;background-color: initial;&quot;&gt;?&amp;nbsp; &amp;nbsp; &amp;nbsp; &amp;nbsp; &amp;nbsp; &amp;nbsp; &amp;nbsp; &amp;nbsp; &amp;nbsp; &amp;nbsp; &amp;nbsp; &amp;nbsp; &amp;nbsp; &amp;nbsp; &amp;nbsp; &amp;nbsp; &amp;nbsp; &amp;nbsp; &amp;nbsp; &amp;nbsp; &amp;nbsp; &amp;nbsp; &amp;nbsp; &amp;nbsp; &amp;nbsp; &amp;nbsp; &amp;nbsp;&amp;nbsp;&lt;/span&gt;&lt;/div&gt;&lt;div&gt;-&amp;nbsp; OMS: how oms get Order status from Exchan ges&amp;nbsp; &amp;nbsp; &amp;nbsp; &amp;nbsp; &amp;nbsp; &amp;nbsp; &amp;nbsp; &amp;nbsp; &amp;nbsp; &amp;nbsp; &amp;nbsp; &amp;nbsp; &amp;nbsp; &amp;nbsp; &amp;nbsp; &amp;nbsp; &amp;nbsp; &amp;nbsp; &amp;nbsp; &amp;nbsp; &amp;nbsp;&amp;nbsp;&lt;/div&gt;&lt;div&gt;-&amp;nbsp; OES: How it connects to Exchanges? (Need to implement abstraction for it)&amp;nbsp;&lt;/div&gt;&lt;div&gt;-&amp;nbsp; Strategies --&amp;gt; OMS: UnixDomainSocket &amp;amp;&amp;amp; FlatBuffers ??&amp;nbsp; Abstraction ??&amp;nbsp; &amp;nbsp;&amp;nbsp;&lt;/div&gt;&lt;div&gt;-&amp;nbsp; Snapshots: How to handle and where to storesnapshots ??? What DB???&amp;nbsp; &amp;nbsp;&amp;nbsp;&lt;/div&gt;" style="text;html=1;align=center;verticalAlign=middle;whiteSpace=wrap;rounded=0;labelPosition=center;verticalLabelPosition=middle;" parent="1" vertex="1">
          <mxGeometry x="30" y="890" width="430" height="140" as="geometry" />
        </mxCell>
      </root>
    </mxGraphModel>
  </diagram>
</mxfile>
